<?xml version="1.0" standalone="no"?>
<!DOCTYPE svg PUBLIC "-//W3C//DTD SVG 20010904//EN"
 "http://www.w3.org/TR/2001/REC-SVG-20010904/DTD/svg10.dtd">
<svg version="1.0" xmlns="http://www.w3.org/2000/svg"
 width="223.000000pt" height="223.000000pt" viewBox="0 0 223.000000 223.000000"
 preserveAspectRatio="xMidYMid meet">
<metadata>
Created by potrace 1.11, written by Peter Selinger 2001-2013
</metadata>
<g transform="translate(0.000000,223.000000) scale(0.100000,-0.100000)"
fill="#000000" stroke="none">
<path d="M960 2065 c-202 -40 -403 -167 -511 -322 -59 -86 -157 -286 -193
-397 -33 -100 -33 -106 6 -70 18 17 44 37 58 46 20 12 30 34 47 101 31 121 63
182 140 270 38 42 82 96 98 119 41 57 109 102 208 135 79 26 89 27 302 28 242
0 279 -6 400 -67 74 -37 88 -49 135 -118 21 -30 60 -79 88 -108 62 -65 102
-143 133 -257 19 -72 27 -89 53 -107 17 -12 44 -33 60 -47 l29 -26 -7 30 c-14
55 -78 219 -119 300 -88 178 -174 278 -315 369 -179 116 -409 162 -612 121z"/>
<path d="M995 1616 c-38 -8 -100 -25 -138 -39 -69 -27 -191 -100 -216 -130
-10 -13 -30 -17 -86 -17 -57 0 -75 -4 -88 -18 -22 -24 -21 -43 4 -96 l22 -44
-20 -33 c-58 -95 -100 -289 -88 -403 7 -71 53 -266 67 -283 5 -7 5 -14 -2 -18
-12 -7 -20 11 -71 165 -43 130 -48 128 -19 -10 22 -105 25 -170 10 -170 -34 0
-93 99 -129 214 -25 81 -51 267 -52 374 0 97 -14 69 -23 -50 -7 -94 7 -263 29
-345 14 -57 11 -61 -22 -38 -33 23 -62 76 -83 157 l-21 73 6 -83 c5 -82 5 -83
-15 -72 -12 6 -30 26 -40 43 -19 30 -20 30 -20 9 0 -42 31 -92 71 -115 24 -14
45 -36 55 -60 22 -48 87 -107 117 -107 13 0 34 -12 48 -26 29 -32 94 -63 131
-64 18 0 33 -9 47 -29 22 -31 85 -61 127 -61 14 0 53 -20 87 -44 276 -195 622
-195 887 0 49 36 68 44 104 44 49 0 60 9 73 60 8 32 12 35 40 32 51 -5 107 15
143 53 19 19 43 35 54 35 12 0 34 9 50 19 30 20 86 95 86 115 0 6 18 21 39 33
40 23 71 73 71 115 0 21 -1 21 -20 -9 -10 -17 -28 -37 -39 -42 -19 -11 -20 -9
-15 61 l4 73 -15 -52 c-8 -29 -23 -70 -34 -90 -21 -41 -67 -90 -77 -81 -3 3 2
40 10 82 22 105 30 235 21 340 -4 48 -9 86 -11 83 -2 -2 -8 -59 -14 -128 -19
-233 -64 -401 -131 -482 -61 -75 -74 -38 -39 119 29 131 23 143 -14 29 -35
-111 -78 -217 -83 -211 -2 2 12 46 33 97 77 197 82 359 18 545 -18 53 -24 91
-24 157 0 106 -8 117 -86 117 -52 0 -60 3 -126 55 -81 64 -185 116 -275 140
-89 22 -234 27 -318 11z m-296 -313 l39 -78 38 78 38 77 73 0 c40 0 73 -2 73
-5 0 -3 -34 -73 -75 -155 l-75 -150 0 -150 0 -150 -75 0 -75 0 0 155 0 155
-75 150 -75 150 75 0 75 0 39 -77z m648 49 c66 -34 110 -78 140 -140 24 -48
28 -70 28 -137 0 -67 -4 -89 -28 -137 -50 -101 -137 -158 -253 -166 -97 -6
-158 15 -228 79 -70 64 -100 130 -100 224 0 125 75 240 187 285 70 27 193 23
254 -8z m403 -187 l0 -205 -65 0 -65 0 0 205 0 205 65 0 65 0 0 -205z m-15
-280 c30 -30 31 -54 4 -89 -40 -50 -119 -24 -119 40 0 68 68 97 115 49z
m-1049 -174 c38 -23 61 -76 37 -85 -31 -12 -62 -6 -68 14 -7 21 -46 37 -64 25
-6 -3 -11 -15 -11 -26 0 -15 17 -27 64 -49 75 -33 101 -65 91 -109 -19 -89
-177 -108 -225 -28 -29 47 -26 57 19 57 30 0 41 -5 46 -19 12 -37 79 -35 73 2
-2 15 -18 27 -56 42 -94 35 -120 76 -91 139 24 53 126 73 185 37z m146 -31
c-5 -70 -1 -76 47 -72 l41 4 0 59 0 59 40 0 40 0 0 -165 0 -165 -40 0 -40 0 0
66 0 65 -42 -3 -43 -3 -3 -62 -3 -63 -34 0 -35 0 0 165 0 165 38 0 37 0 -3
-50z m466 23 c15 -11 38 -35 50 -54 20 -28 23 -44 20 -92 -3 -37 -11 -67 -25
-85 -92 -124 -293 -63 -293 90 0 72 38 131 100 157 37 16 117 7 148 -16z m156
-13 c12 -74 28 -141 33 -137 2 3 11 34 19 68 8 35 16 74 19 87 4 18 12 22 44
22 l39 0 16 -69 c9 -39 16 -77 16 -85 0 -8 4 -17 9 -20 4 -3 17 35 27 84 l18
90 38 0 c24 0 38 -5 38 -12 0 -7 -18 -80 -38 -163 l-38 -150 -41 -3 -41 -3
-18 75 c-10 42 -21 76 -25 76 -4 0 -15 -34 -25 -75 l-18 -76 -40 3 -40 3 -38
150 c-20 83 -38 156 -38 163 0 7 14 12 39 12 37 0 39 -1 45 -40z"/>
<path d="M1066 1278 c-13 -18 -16 -55 -16 -198 0 -186 8 -222 46 -228 12 -2
91 37 185 91 167 96 188 116 160 151 -11 14 -342 206 -354 206 -3 0 -13 -10
-21 -22z"/>
<path d="M1130 566 c0 -67 4 -117 10 -121 6 -4 36 8 68 26 110 63 132 78 126
93 -6 15 -174 116 -193 116 -7 0 -11 -37 -11 -114z"/>
</g>
</svg>
